{"title":"Shiva (1989) DvdRip Telugu Movie - teluguppls","uid":6539458,"size":945536967,"categoryP":"video","categoryS":"movies","magnet":"?xt=urn:btih:ae9c01afb225574cf2ba3872da35c51a2a5f4b3a&amp;dn=Shiva+%281989%29+DvdRip+Telugu+Movie+-+teluguppls&amp;tr=udp%3A%2F%2Ftracker.openbittorrent.com%3A80&amp;tr=udp%3A%2F%2Fopen.demonii.com%3A1337&amp;tr=udp%3A%2F%2Ftracker.coppersurfer.tk%3A6969&amp;tr=udp%3A%2F%2Fexodus.desync.com%3A6969","seeders":2,"leechers":0,"uploader":"n1212","files":2,"time":1310636346,"description":"Shiva (1989) DvdRip Telugu Movie - teluguppls\n\nGeneral\n\nFormat                           : Matroska\nFile size                        : 902 MiB\nDuration                         : 2h 24mn\nOverall bit rate                 : 871 Kbps\n\n\nVideo\nID                               : 1\nFormat                           : AVC\nFormat/Info                      : Advanced Video Codec\nFormat profile                   : &lt;a class=&quot;__cf_email__&quot; href=&quot;/cdn-cgi/l/email-protection&quot; data-cfemail=&quot;e4a9858d8aa4a8d6cad5&quot;&gt;[email&amp;#160;protected]&lt;/a&gt;&lt;script cf-hash='f9e31' type=&quot;text/javascript&quot;&gt;\n/* &lt;![CDATA[ */!function(){try{var t=&quot;currentScript&quot;in document?document.currentScript:function(){for(var t=document.getElementsByTagName(&quot;script&quot;),e=t.length;e--;)if(t[e].getAttribute(&quot;cf-hash&quot;))return t[e]}();if(t&amp;&amp;t.previousSibling){var e,r,n,i,c=t.previousSibling,a=c.getAttribute(&quot;data-cfemail&quot;);if(a){for(e=&quot;&quot;,r=parseInt(a.substr(0,2),16),n=2;a.length-n;n+=2)i=parseInt(a.substr(n,2),16)^r,e+=String.fromCharCode(i);e=document.createTextNode(e),c.parentNode.replaceChild(e,c)}}}catch(u){}}();/* ]]&gt; */&lt;/script&gt;\nFormat settings, CABAC           : Yes\nFormat settings, ReFrames        : 2 frames\nCodec ID                         : V_MPEG4/ISO/AVC\nDuration                         : 2h 24mn\nBit rate                         : 419 Kbps\nWidth                            : 608 pixels\nHeight                           : 256 pixels\nDisplay aspect ratio             : 1.891\nFrame rate                       : 29.970 fps\nColor space                      : YUV\nChroma subsampling               : 4:2:0\nBit depth                        : 8 bits\nScan type                        : Progressive\nBits/(Pixel*Frame)               : 0.090\nStream size                      : 420 MiB (47%)\nWriting library                  : x264 core 79\n\n\nAudio\n\nFormat                           : AC-3\nFormat/Info                      : Audio Coding 3\nDuration                         : 2h 24mn\nBit rate mode                    : Constant\nBit rate                         : 448 Kbps\nChannel(s)                       : 6 channels\nChannel positions                : Front: L C R, Side: L R, LFE\nSampling rate                    : 48.0 KHz\nBit depth                        : 16 bits\nCompression mode                 : Lossy\nStream size                      : 464 MiB (51%)\nLanguage                         : Telugu\n\n\nPLEASE SEEEEEEEEEEEEEEEEEEEEEDDDDDDDDDDDDDDDDDDDD.....................\n\nPOST A COMMENT.......................\n","torrent":{"xt":"urn:btih:ae9c01afb225574cf2ba3872da35c51a2a5f4b3a","amp;dn":"Shiva+%281989%29+DvdRip+Telugu+Movie+-+teluguppls","amp;tr":["udp%3A%2F%2Ftracker.openbittorrent.com%3A80","udp%3A%2F%2Fopen.demonii.com%3A1337","udp%3A%2F%2Ftracker.coppersurfer.tk%3A6969","udp%3A%2F%2Fexodus.desync.com%3A6969"],"infoHash":"ae9c01afb225574cf2ba3872da35c51a2a5f4b3a","infoHashBuffer":{"type":"Buffer","data":[174,156,1,175,178,37,87,76,242,186,56,114,218,53,197,26,42,95,75,58]},"announce":[],"urlList":[]}}